<?xml version="1.0" standalone="no"?>
<svg xmlns:xlink="http://www.w3.org/1999/xlink" id="wave" style="transform:rotate(0deg); transition: 0.3s" viewBox="0 0 1440 320" version="1.1" xmlns="http://www.w3.org/2000/svg"><defs><linearGradient id="sw-gradient-0" x1="0" x2="0" y1="1" y2="0"><stop stop-color="rgba(62, 150.584, 243, 1)" offset="0%"/><stop stop-color="rgba(11, 254.41, 255, 1)" offset="100%"/></linearGradient></defs><path style="transform:translate(0, 0px); opacity:1" fill="url(#sw-gradient-0)" d="M0,32L60,37.3C120,43,240,53,360,90.7C480,128,600,192,720,186.7C840,181,960,107,1080,106.7C1200,107,1320,181,1440,197.3C1560,213,1680,171,1800,138.7C1920,107,2040,85,2160,80C2280,75,2400,85,2520,101.3C2640,117,2760,139,2880,170.7C3000,203,3120,245,3240,218.7C3360,192,3480,96,3600,80C3720,64,3840,128,3960,160C4080,192,4200,192,4320,160C4440,128,4560,64,4680,69.3C4800,75,4920,149,5040,181.3C5160,213,5280,203,5400,208C5520,213,5640,235,5760,229.3C5880,224,6000,192,6120,154.7C6240,117,6360,75,6480,53.3C6600,32,6720,32,6840,74.7C6960,117,7080,203,7200,229.3C7320,256,7440,224,7560,197.3C7680,171,7800,149,7920,122.7C8040,96,8160,64,8280,90.7C8400,117,8520,203,8580,245.3L8640,288L8640,320L8580,320C8520,320,8400,320,8280,320C8160,320,8040,320,7920,320C7800,320,7680,320,7560,320C7440,320,7320,320,7200,320C7080,320,6960,320,6840,320C6720,320,6600,320,6480,320C6360,320,6240,320,6120,320C6000,320,5880,320,5760,320C5640,320,5520,320,5400,320C5280,320,5160,320,5040,320C4920,320,4800,320,4680,320C4560,320,4440,320,4320,320C4200,320,4080,320,3960,320C3840,320,3720,320,3600,320C3480,320,3360,320,3240,320C3120,320,3000,320,2880,320C2760,320,2640,320,2520,320C2400,320,2280,320,2160,320C2040,320,1920,320,1800,320C1680,320,1560,320,1440,320C1320,320,1200,320,1080,320C960,320,840,320,720,320C600,320,480,320,360,320C240,320,120,320,60,320L0,320Z"/></svg>